<svg width="48" height="48" viewBox="0 0 48 48" fill="none" xmlns="http://www.w3.org/2000/svg">
<path d="M6.59237 41.2027L19.3204 28.4747M35.3484 22.8147L31.5384 34.2467C31.4773 34.4295 31.3731 34.5949 31.2345 34.729C31.096 34.863 30.9271 34.9617 30.7424 35.0167L7.38637 41.9607C7.17595 42.0231 6.95242 42.0267 6.74011 41.971C6.5278 41.9153 6.33483 41.8024 6.18222 41.6446C6.02961 41.4869 5.92319 41.2903 5.87456 41.0762C5.82592 40.8622 5.83692 40.6389 5.90637 40.4307L13.4904 17.6827C13.5447 17.5193 13.6336 17.3696 13.7509 17.2436C13.8682 17.1177 14.0113 17.0184 14.1704 16.9527L24.9444 12.5167C25.1634 12.4262 25.4043 12.4026 25.6367 12.4489C25.8692 12.4951 26.0827 12.6092 26.2504 12.7767L35.0584 21.5867C35.216 21.7442 35.3266 21.9426 35.3778 22.1595C35.429 22.3764 35.4188 22.6032 35.3484 22.8147Z" stroke="#81BD36" stroke-width="3.5" stroke-linecap="round" stroke-linejoin="round"/>
<path d="M36.8068 6.36412L41.5348 11.0921C41.8901 11.432 42.1739 11.8395 42.3696 12.2906C42.5653 12.7417 42.6689 13.2273 42.6743 13.719C42.6798 14.2107 42.5869 14.6985 42.4013 15.1538C42.2156 15.6091 41.9409 16.0228 41.5932 16.3705C41.2455 16.7182 40.8319 16.9929 40.3765 17.1786C39.9212 17.3642 39.4334 17.4571 38.9417 17.4516C38.45 17.4462 37.9644 17.3426 37.5133 17.1469C37.0622 16.9512 36.6547 16.6674 36.3148 16.3121L31.5848 11.5841C30.9177 10.8868 30.5501 9.95601 30.5608 8.99102C30.5714 8.02604 30.9595 7.10359 31.6419 6.42121C32.3243 5.73882 33.2467 5.35074 34.2117 5.34007C35.1767 5.3294 36.1095 5.69699 36.8068 6.36412Z" fill="#81BD36" stroke="#81BD36" stroke-width="3.5" stroke-linecap="round" stroke-linejoin="round"/>
<path d="M23.5622 24.2323C23.2854 23.9457 22.9544 23.7172 22.5884 23.56C22.2224 23.4027 21.8287 23.32 21.4304 23.3165C21.032 23.3131 20.637 23.389 20.2683 23.5398C19.8996 23.6906 19.5647 23.9134 19.283 24.1951C19.0013 24.4768 18.7785 24.8117 18.6277 25.1804C18.4769 25.5491 18.4009 25.9441 18.4044 26.3425C18.4079 26.7408 18.4906 27.1345 18.6479 27.5005C18.8051 27.8665 19.0336 28.1975 19.3202 28.4743C19.886 29.0207 20.6438 29.3231 21.4304 29.3163C22.217 29.3095 22.9694 28.994 23.5256 28.4377C24.0818 27.8815 24.3973 27.1291 24.4042 26.3425C24.411 25.5559 24.1086 24.7981 23.5622 24.2323Z" stroke="#81BD36" stroke-width="3.5" stroke-linecap="round" stroke-linejoin="round"/>
</svg>
