<svg width="24" height="20" viewBox="0 0 24 20" fill="none" xmlns="http://www.w3.org/2000/svg">
<g clip-path="url(#clip0_360_638)">
<path d="M13.5771 9.98283L15.9169 12.6868L19.0633 14.7195L19.6106 9.99989L19.0633 5.38672L15.8566 7.17241L13.5771 9.98283Z" fill="#00832D"/>
<path d="M0 14.282V18.3038C0 19.2221 0.73725 19.9677 1.64569 19.9677H5.6235L6.44719 16.9289L5.6235 14.282L2.89444 13.4492L0 14.282Z" fill="#0066DA"/>
<path d="M5.6235 0L0 5.68569L2.89462 6.51649L5.6235 5.68569L6.43219 3.07479L5.6235 0Z" fill="#E94235"/>
<path d="M0 14.2843H5.62341V5.6875H0V14.2843Z" fill="#2684FC"/>
<path d="M22.6559 2.40564L19.0635 5.38536V14.7181L22.6707 17.7093C23.2107 18.137 24.0006 17.7473 24.0006 17.0532V3.04849C24.0006 2.34678 23.1919 1.95891 22.6558 2.40574" fill="#00AC47"/>
<path d="M13.5766 9.98438V14.2818H5.62305V19.9675H17.4172C18.3256 19.9675 19.0628 19.2219 19.0628 18.3036V14.7211L13.5766 9.98438Z" fill="#00AC47"/>
<path d="M17.4172 0H5.62305V5.68569H13.5766V9.98313L19.0629 5.38692V1.66398C19.0629 0.745498 18.3256 9.47868e-05 17.4172 9.47868e-05" fill="#FFBA00"/>
</g>
<defs>
<clipPath id="clip0_360_638">
<rect width="24" height="20" fill="white"/>
</clipPath>
</defs>
</svg>
