<svg width="52" height="52" viewBox="0 0 52 52" fill="none" xmlns="http://www.w3.org/2000/svg">
<path d="M25.9997 4.33203C23.1544 4.33203 20.3369 4.89246 17.7082 5.98131C15.0795 7.07016 12.691 8.66612 10.679 10.6781C6.61574 14.7413 4.33301 20.2523 4.33301 25.9987C4.33301 35.5754 10.5513 43.7004 19.153 46.582C20.2363 46.7554 20.583 46.0837 20.583 45.4987V41.837C14.5813 43.137 13.303 38.9337 13.303 38.9337C12.3063 36.4204 10.898 35.7487 10.898 35.7487C8.92634 34.4054 11.0497 34.4487 11.0497 34.4487C13.2163 34.6004 14.3647 36.6804 14.3647 36.6804C16.2497 39.9737 19.4347 38.9987 20.6697 38.4787C20.8647 37.0704 21.428 36.117 22.0347 35.5754C17.2247 35.0337 12.1763 33.1704 12.1763 24.9154C12.1763 22.5104 12.9997 20.582 14.408 19.0437C14.1913 18.502 13.433 16.2487 14.6247 13.3237C14.6247 13.3237 16.4447 12.7387 20.583 15.5337C22.2947 15.057 24.158 14.8187 25.9997 14.8187C27.8413 14.8187 29.7047 15.057 31.4163 15.5337C35.5547 12.7387 37.3747 13.3237 37.3747 13.3237C38.5663 16.2487 37.808 18.502 37.5913 19.0437C38.9997 20.582 39.823 22.5104 39.823 24.9154C39.823 33.192 34.753 35.012 29.9213 35.5537C30.7013 36.2254 31.4163 37.547 31.4163 39.562V45.4987C31.4163 46.0837 31.763 46.777 32.868 46.582C41.4697 43.6787 47.6663 35.5754 47.6663 25.9987C47.6663 23.1534 47.1059 20.3359 46.0171 17.7072C44.9282 15.0785 43.3323 12.69 41.3203 10.6781C39.3084 8.66612 36.9199 7.07016 34.2911 5.98131C31.6624 4.89246 28.845 4.33203 25.9997 4.33203Z" fill="black"/>
</svg>
