<svg width="52" height="52" viewBox="0 0 52 52" fill="none" xmlns="http://www.w3.org/2000/svg">
<path d="M25.9997 13C20.2147 13 16.618 15.8817 15.1663 21.6667C17.333 18.785 19.868 17.7017 22.7497 18.4167C24.3963 18.8283 25.588 20.02 26.888 21.3417C29.0113 23.5083 31.4163 26 36.833 26C42.618 26 46.2147 23.1183 47.6663 17.3333C45.4997 20.215 42.9647 21.2983 40.083 20.5833C38.4363 20.1717 37.2663 18.98 35.9447 17.6583C33.8213 15.4917 31.4163 13 25.9997 13ZM15.1663 26C9.38134 26 5.78467 28.8817 4.33301 34.6667C6.49967 31.785 9.03467 30.7017 11.9163 31.4167C13.563 31.8283 14.733 33.02 16.0547 34.3417C18.178 36.5083 20.583 39 25.9997 39C31.7847 39 35.3813 36.1183 36.833 30.3333C34.6663 33.215 32.1313 34.2983 29.2497 33.5833C27.603 33.1717 26.433 31.98 25.1113 30.6583C22.988 28.4917 20.583 26 15.1663 26Z" fill="black"/>
</svg>
