<svg width="52" height="52" viewBox="0 0 52 52" fill="none" xmlns="http://www.w3.org/2000/svg">
<g clip-path="url(#clip0_308_564)">
<path d="M1.39355 3.19583C1.39355 4.9595 2.84089 6.39167 4.62189 6.39167H31.3954C34.4461 6.39167 36.9594 7.32333 38.9354 9.18667C40.9085 11.0514 41.8951 13.4492 41.8951 16.38C41.8951 19.0883 40.9078 21.307 38.9332 23.036C36.9601 24.7246 34.4475 25.5681 31.3954 25.5667H19.7604C17.9751 25.5667 16.5299 26.9967 16.5299 28.7625C16.5299 30.5283 17.9751 31.9583 19.7604 31.9583H32.6087L44.1831 50.336C44.9009 51.4453 45.9106 52 47.2121 52C48.6493 52 49.6589 51.4453 50.2411 50.336C50.8232 49.1804 50.7112 47.9599 49.9052 46.6743L39.6071 30.2943C42.3891 29.0507 44.5875 27.2307 46.2024 24.8343C47.8187 22.3932 48.6269 19.5751 48.6269 16.38C48.6269 13.1387 47.8859 10.2974 46.4039 7.85633C44.9696 5.41522 42.9509 3.50639 40.3481 2.12983C37.7452 0.709944 34.7609 0 31.3954 0H4.62405C2.84089 0 1.39355 1.43 1.39355 3.19583Z" fill="black"/>
</g>
<defs>
<clipPath id="clip0_308_564">
<rect width="52" height="52" fill="white"/>
</clipPath>
</defs>
</svg>
