<svg width="52" height="52" viewBox="0 0 52 52" fill="none" xmlns="http://www.w3.org/2000/svg">
<path opacity="0.6" d="M25.2783 4.33203H18.0546C16.1391 4.33203 14.302 5.09298 12.9475 6.44748C11.593 7.80197 10.832 9.63907 10.832 11.5546C10.832 13.4702 11.593 15.3073 12.9475 16.6617C14.302 18.0162 16.1391 18.7772 18.0546 18.7772H25.2783V4.33203Z" fill="black"/>
<path opacity="0.4" d="M25.2782 18.7773H18.0545C16.1392 18.7773 14.3024 19.5382 12.9481 20.8925C11.5938 22.2468 10.833 24.0836 10.833 25.9988C10.833 27.9141 11.5938 29.7509 12.9481 31.1052C14.3024 32.4595 16.1392 33.2203 18.0545 33.2203H25.2782V18.7773Z" fill="black"/>
<path d="M39.7215 25.9999C39.7215 27.9155 38.9606 29.7526 37.6061 31.1071C36.2516 32.4616 34.4145 33.2225 32.4989 33.2225C30.5834 33.2225 28.7463 32.4616 27.3918 31.1071C26.0373 29.7526 25.2764 27.9155 25.2764 25.9999C25.2764 24.0844 26.0373 22.2473 27.3918 20.8928C28.7463 19.5383 30.5834 18.7773 32.4989 18.7773C34.4145 18.7773 36.2516 19.5383 37.6061 20.8928C38.9606 22.2473 39.7215 24.0844 39.7215 25.9999Z" fill="black"/>
<path opacity="0.2" d="M18.0553 33.2248H25.2789V40.4463C25.2785 41.8744 24.8547 43.2703 24.061 44.4576C23.2673 45.6448 22.1395 46.5701 20.82 47.1164C19.5005 47.6627 18.0487 47.8055 16.6481 47.5268C15.2474 47.2481 13.9609 46.5603 12.9511 45.5505C11.9413 44.5407 11.2535 43.2542 10.9748 41.8535C10.6961 40.4529 10.8389 39.0011 11.3852 37.6816C11.9315 36.3621 12.8568 35.2343 14.044 34.4406C15.2313 33.6469 16.6272 33.2253 18.0553 33.2248Z" fill="black"/>
<path opacity="0.8" d="M25.2764 4.33203H32.4979C34.4134 4.33203 36.2505 5.09298 37.605 6.44748C38.9595 7.80197 39.7205 9.63907 39.7205 11.5546C39.7205 13.4702 38.9595 15.3073 37.605 16.6617C36.2505 18.0162 34.4134 18.7772 32.4979 18.7772H25.2764V4.33203Z" fill="black"/>
</svg>
