<svg width="146" height="146" viewBox="0 0 146 146" fill="none" xmlns="http://www.w3.org/2000/svg">
<path d="M63.1047 6.86562C66.1265 -2.28785 79.0747 -2.28784 82.0965 6.86563L94.4762 44.3649C95.4693 47.3731 97.829 49.7329 100.837 50.726L138.337 63.1057C147.49 66.1275 147.49 79.0756 138.337 82.0975L100.837 94.4772C97.829 95.4703 95.4693 97.83 94.4762 100.838L82.0965 138.338C79.0747 147.491 66.1265 147.491 63.1047 138.337L50.725 100.838C49.7319 97.83 47.3722 95.4703 44.364 94.4772L6.86464 82.0975C-2.28883 79.0756 -2.28881 66.1275 6.86465 63.1056L44.364 50.726C47.3722 49.7329 49.7319 47.3731 50.725 44.3649L63.1047 6.86562Z" fill="#333333"/>
</svg>
